{
	"asset":{
		"generator":"Khronos glTF Blender I/O v4.3.47",
		"version":"2.0"
	},
	"extensionsUsed":[
		"KHR_materials_specular"
	],
	"scene":0,
	"scenes":[
		{
			"name":"Scene",
			"nodes":[
				0
			]
		}
	],
	"nodes":[
		{
			"mesh":0,
			"name":"tree-75"
		}
	],
	"materials":[
		{
			"doubleSided":true,
			"extensions":{
				"KHR_materials_specular":{
					"specularFactor":0.5433070659637451
				}
			},
			"name":"Material.001",
			"pbrMetallicRoughness":{
				"baseColorFactor":[
					0.15895959734916687,
					0.42869096994400024,
					0.11443550884723663,
					1
				],
				"metallicFactor":0,
				"roughnessFactor":0.7007874250411987
			}
		},
		{
			"doubleSided":true,
			"name":"Material",
			"pbrMetallicRoughness":{
				"metallicFactor":0,
				"roughnessFactor":0.5
			}
		}
	],
	"meshes":[
		{
			"name":"leaves.008",
			"primitives":[
				{
					"attributes":{
						"POSITION":0,
						"NORMAL":1,
						"TEXCOORD_0":2,
						"TEXCOORD_1":3
					},
					"indices":4,
					"material":0
				},
				{
					"attributes":{
						"POSITION":5,
						"NORMAL":6,
						"TEXCOORD_0":7,
						"TEXCOORD_1":8
					},
					"indices":9,
					"material":1
				}
			]
		}
	],
	"accessors":[
		{
			"bufferView":0,
			"componentType":5126,
			"count":325004,
			"max":[
				7.924007892608643,
				11.549880981445312,
				7.803816318511963
			],
			"min":[
				-7.145743370056152,
				0.8503510355949402,
				-7.501908302307129
			],
			"type":"VEC3"
		},
		{
			"bufferView":1,
			"componentType":5126,
			"count":325004,
			"type":"VEC3"
		},
		{
			"bufferView":2,
			"componentType":5126,
			"count":325004,
			"type":"VEC2"
		},
		{
			"bufferView":3,
			"componentType":5126,
			"count":325004,
			"type":"VEC2"
		},
		{
			"bufferView":4,
			"componentType":5125,
			"count":608880,
			"type":"SCALAR"
		},
		{
			"bufferView":5,
			"componentType":5126,
			"count":150885,
			"max":[
				7.577559471130371,
				11.268328666687012,
				7.57236909866333
			],
			"min":[
				-6.857046604156494,
				0,
				-7.295250415802002
			],
			"type":"VEC3"
		},
		{
			"bufferView":6,
			"componentType":5126,
			"count":150885,
			"type":"VEC3"
		},
		{
			"bufferView":7,
			"componentType":5126,
			"count":150885,
			"type":"VEC2"
		},
		{
			"bufferView":8,
			"componentType":5126,
			"count":150885,
			"type":"VEC2"
		},
		{
			"bufferView":9,
			"componentType":5125,
			"count":705168,
			"type":"SCALAR"
		}
	],
	"bufferViews":[
		{
			"buffer":0,
			"byteLength":3900048,
			"byteOffset":0,
			"target":34962
		},
		{
			"buffer":0,
			"byteLength":3900048,
			"byteOffset":3900048,
			"target":34962
		},
		{
			"buffer":0,
			"byteLength":2600032,
			"byteOffset":7800096,
			"target":34962
		},
		{
			"buffer":0,
			"byteLength":2600032,
			"byteOffset":10400128,
			"target":34962
		},
		{
			"buffer":0,
			"byteLength":2435520,
			"byteOffset":13000160,
			"target":34963
		},
		{
			"buffer":0,
			"byteLength":1810620,
			"byteOffset":15435680,
			"target":34962
		},
		{
			"buffer":0,
			"byteLength":1810620,
			"byteOffset":17246300,
			"target":34962
		},
		{
			"buffer":0,
			"byteLength":1207080,
			"byteOffset":19056920,
			"target":34962
		},
		{
			"buffer":0,
			"byteLength":1207080,
			"byteOffset":20264000,
			"target":34962
		},
		{
			"buffer":0,
			"byteLength":2820672,
			"byteOffset":21471080,
			"target":34963
		}
	],
	"buffers":[
		{
			"byteLength":24291752,
			"uri":"tree-75.bin"
		}
	]
}
