{
	"asset":{
		"generator":"Khronos glTF Blender I/O v4.3.47",
		"version":"2.0"
	},
	"extensionsUsed":[
		"KHR_materials_specular"
	],
	"scene":0,
	"scenes":[
		{
			"name":"Scene",
			"nodes":[
				0
			]
		}
	],
	"nodes":[
		{
			"mesh":0,
			"name":"tree-0"
		}
	],
	"materials":[
		{
			"doubleSided":true,
			"extensions":{
				"KHR_materials_specular":{
					"specularFactor":0.5433070659637451
				}
			},
			"name":"Material.001",
			"pbrMetallicRoughness":{
				"baseColorFactor":[
					0.15895959734916687,
					0.42869096994400024,
					0.11443550884723663,
					1
				],
				"metallicFactor":0,
				"roughnessFactor":0.7007874250411987
			}
		},
		{
			"doubleSided":true,
			"name":"Material",
			"pbrMetallicRoughness":{
				"metallicFactor":0,
				"roughnessFactor":0.5
			}
		}
	],
	"meshes":[
		{
			"name":"leaves.004",
			"primitives":[
				{
					"attributes":{
						"POSITION":0,
						"NORMAL":1,
						"TEXCOORD_0":2,
						"TEXCOORD_1":3
					},
					"indices":4,
					"material":0
				},
				{
					"attributes":{
						"POSITION":5,
						"NORMAL":6,
						"TEXCOORD_0":7,
						"TEXCOORD_1":8
					},
					"indices":9,
					"material":1
				}
			]
		}
	],
	"accessors":[
		{
			"bufferView":0,
			"componentType":5126,
			"count":338,
			"max":[
				0.6868875622749329,
				1.4551494121551514,
				0.7460212707519531
			],
			"min":[
				-0.8087530732154846,
				0.2647860050201416,
				-0.6611078977584839
			],
			"type":"VEC3"
		},
		{
			"bufferView":1,
			"componentType":5126,
			"count":338,
			"type":"VEC3"
		},
		{
			"bufferView":2,
			"componentType":5126,
			"count":338,
			"type":"VEC2"
		},
		{
			"bufferView":3,
			"componentType":5126,
			"count":338,
			"type":"VEC2"
		},
		{
			"bufferView":4,
			"componentType":5123,
			"count":672,
			"type":"SCALAR"
		},
		{
			"bufferView":5,
			"componentType":5126,
			"count":4025,
			"max":[
				0.5665439963340759,
				1.2977052927017212,
				0.6174615621566772
			],
			"min":[
				-0.6864123940467834,
				0,
				-0.5355345010757446
			],
			"type":"VEC3"
		},
		{
			"bufferView":6,
			"componentType":5126,
			"count":4025,
			"type":"VEC3"
		},
		{
			"bufferView":7,
			"componentType":5126,
			"count":4025,
			"type":"VEC2"
		},
		{
			"bufferView":8,
			"componentType":5126,
			"count":4025,
			"type":"VEC2"
		},
		{
			"bufferView":9,
			"componentType":5123,
			"count":19728,
			"type":"SCALAR"
		}
	],
	"bufferViews":[
		{
			"buffer":0,
			"byteLength":4056,
			"byteOffset":0,
			"target":34962
		},
		{
			"buffer":0,
			"byteLength":4056,
			"byteOffset":4056,
			"target":34962
		},
		{
			"buffer":0,
			"byteLength":2704,
			"byteOffset":8112,
			"target":34962
		},
		{
			"buffer":0,
			"byteLength":2704,
			"byteOffset":10816,
			"target":34962
		},
		{
			"buffer":0,
			"byteLength":1344,
			"byteOffset":13520,
			"target":34963
		},
		{
			"buffer":0,
			"byteLength":48300,
			"byteOffset":14864,
			"target":34962
		},
		{
			"buffer":0,
			"byteLength":48300,
			"byteOffset":63164,
			"target":34962
		},
		{
			"buffer":0,
			"byteLength":32200,
			"byteOffset":111464,
			"target":34962
		},
		{
			"buffer":0,
			"byteLength":32200,
			"byteOffset":143664,
			"target":34962
		},
		{
			"buffer":0,
			"byteLength":39456,
			"byteOffset":175864,
			"target":34963
		}
	],
	"buffers":[
		{
			"byteLength":215320,
			"uri":"tree-0.bin"
		}
	]
}
