{
	"asset":{
		"generator":"Khronos glTF Blender I/O v4.3.47",
		"version":"2.0"
	},
	"extensionsUsed":[
		"KHR_materials_specular"
	],
	"scene":0,
	"scenes":[
		{
			"name":"Scene",
			"nodes":[
				0
			]
		}
	],
	"nodes":[
		{
			"mesh":0,
			"name":"tree-25"
		}
	],
	"materials":[
		{
			"doubleSided":true,
			"name":"Material",
			"pbrMetallicRoughness":{
				"metallicFactor":0,
				"roughnessFactor":0.5
			}
		},
		{
			"doubleSided":true,
			"extensions":{
				"KHR_materials_specular":{
					"specularFactor":0.5433070659637451
				}
			},
			"name":"Material.001",
			"pbrMetallicRoughness":{
				"baseColorFactor":[
					0.15895959734916687,
					0.42869096994400024,
					0.11443550884723663,
					1
				],
				"metallicFactor":0,
				"roughnessFactor":0.7007874250411987
			}
		}
	],
	"meshes":[
		{
			"name":"tree.006",
			"primitives":[
				{
					"attributes":{
						"POSITION":0,
						"NORMAL":1,
						"TEXCOORD_0":2,
						"TEXCOORD_1":3
					},
					"indices":4,
					"material":0
				},
				{
					"attributes":{
						"POSITION":5,
						"NORMAL":6,
						"TEXCOORD_0":7,
						"TEXCOORD_1":8
					},
					"indices":9,
					"material":1
				}
			]
		}
	],
	"accessors":[
		{
			"bufferView":0,
			"componentType":5126,
			"count":8050,
			"max":[
				1.5345107316970825,
				3.2553389072418213,
				1.7339383363723755
			],
			"min":[
				-1.4966179132461548,
				0,
				-1.5740528106689453
			],
			"type":"VEC3"
		},
		{
			"bufferView":1,
			"componentType":5126,
			"count":8050,
			"type":"VEC3"
		},
		{
			"bufferView":2,
			"componentType":5126,
			"count":8050,
			"type":"VEC2"
		},
		{
			"bufferView":3,
			"componentType":5126,
			"count":8050,
			"type":"VEC2"
		},
		{
			"bufferView":4,
			"componentType":5123,
			"count":39312,
			"type":"SCALAR"
		},
		{
			"bufferView":5,
			"componentType":5126,
			"count":1196,
			"max":[
				1.7646890878677368,
				3.4762940406799316,
				1.837597370147705
			],
			"min":[
				-1.7827094793319702,
				0.326063334941864,
				-1.8217183351516724
			],
			"type":"VEC3"
		},
		{
			"bufferView":6,
			"componentType":5126,
			"count":1196,
			"type":"VEC3"
		},
		{
			"bufferView":7,
			"componentType":5126,
			"count":1196,
			"type":"VEC2"
		},
		{
			"bufferView":8,
			"componentType":5126,
			"count":1196,
			"type":"VEC2"
		},
		{
			"bufferView":9,
			"componentType":5123,
			"count":2376,
			"type":"SCALAR"
		}
	],
	"bufferViews":[
		{
			"buffer":0,
			"byteLength":96600,
			"byteOffset":0,
			"target":34962
		},
		{
			"buffer":0,
			"byteLength":96600,
			"byteOffset":96600,
			"target":34962
		},
		{
			"buffer":0,
			"byteLength":64400,
			"byteOffset":193200,
			"target":34962
		},
		{
			"buffer":0,
			"byteLength":64400,
			"byteOffset":257600,
			"target":34962
		},
		{
			"buffer":0,
			"byteLength":78624,
			"byteOffset":322000,
			"target":34963
		},
		{
			"buffer":0,
			"byteLength":14352,
			"byteOffset":400624,
			"target":34962
		},
		{
			"buffer":0,
			"byteLength":14352,
			"byteOffset":414976,
			"target":34962
		},
		{
			"buffer":0,
			"byteLength":9568,
			"byteOffset":429328,
			"target":34962
		},
		{
			"buffer":0,
			"byteLength":9568,
			"byteOffset":438896,
			"target":34962
		},
		{
			"buffer":0,
			"byteLength":4752,
			"byteOffset":448464,
			"target":34963
		}
	],
	"buffers":[
		{
			"byteLength":453216,
			"uri":"tree-25.bin"
		}
	]
}
