{
	"asset":{
		"generator":"Khronos glTF Blender I/O v4.3.47",
		"version":"2.0"
	},
	"extensionsUsed":[
		"KHR_materials_specular"
	],
	"scene":0,
	"scenes":[
		{
			"name":"Scene",
			"nodes":[
				0
			]
		}
	],
	"nodes":[
		{
			"mesh":0,
			"name":"tree-50"
		}
	],
	"materials":[
		{
			"doubleSided":true,
			"name":"Material",
			"normalTexture":{
				"index":0,
				"scale":0.7999999523162842
			},
			"pbrMetallicRoughness":{
				"baseColorTexture":{
					"index":1
				},
				"metallicFactor":0,
				"roughnessFactor":0.5
			}
		},
		{
			"doubleSided":true,
			"extensions":{
				"KHR_materials_specular":{
					"specularFactor":0.5433070659637451
				}
			},
			"name":"Material.001",
			"pbrMetallicRoughness":{
				"baseColorFactor":[
					0.15895959734916687,
					0.42869096994400024,
					0.11443550884723663,
					1
				],
				"metallicFactor":0,
				"roughnessFactor":0.7007874250411987
			}
		}
	],
	"meshes":[
		{
			"name":"tree.002",
			"primitives":[
				{
					"attributes":{
						"POSITION":0,
						"NORMAL":1,
						"TEXCOORD_0":2,
						"TEXCOORD_1":3
					},
					"indices":4,
					"material":0
				},
				{
					"attributes":{
						"POSITION":5,
						"NORMAL":6,
						"TEXCOORD_0":7,
						"TEXCOORD_1":8
					},
					"indices":9,
					"material":1
				}
			]
		}
	],
	"textures":[
		{
			"sampler":0,
			"source":0
		},
		{
			"sampler":0,
			"source":1
		}
	],
	"images":[
		{
			"mimeType":"image/png",
			"name":"tree_bump",
			"uri":"tree_bump.png"
		},
		{
			"mimeType":"image/png",
			"name":"tree_colorlamp",
			"uri":"tree_colorlamp.png"
		}
	],
	"accessors":[
		{
			"bufferView":0,
			"componentType":5126,
			"count":34895,
			"max":[
				3.677245616912842,
				6.353497505187988,
				3.8020145893096924
			],
			"min":[
				-3.361008405685425,
				0,
				-3.582979679107666
			],
			"type":"VEC3"
		},
		{
			"bufferView":1,
			"componentType":5126,
			"count":34895,
			"type":"VEC3"
		},
		{
			"bufferView":2,
			"componentType":5126,
			"count":34895,
			"type":"VEC2"
		},
		{
			"bufferView":3,
			"componentType":5126,
			"count":34895,
			"type":"VEC2"
		},
		{
			"bufferView":4,
			"componentType":5123,
			"count":167040,
			"type":"SCALAR"
		},
		{
			"bufferView":5,
			"componentType":5126,
			"count":22124,
			"max":[
				3.903353214263916,
				6.572824478149414,
				4.084036827087402
			],
			"min":[
				-3.6237363815307617,
				1.6842150688171387,
				-3.795893669128418
			],
			"type":"VEC3"
		},
		{
			"bufferView":6,
			"componentType":5126,
			"count":22124,
			"type":"VEC3"
		},
		{
			"bufferView":7,
			"componentType":5126,
			"count":22124,
			"type":"VEC2"
		},
		{
			"bufferView":8,
			"componentType":5126,
			"count":22124,
			"type":"VEC2"
		},
		{
			"bufferView":9,
			"componentType":5123,
			"count":42468,
			"type":"SCALAR"
		}
	],
	"bufferViews":[
		{
			"buffer":0,
			"byteLength":418740,
			"byteOffset":0,
			"target":34962
		},
		{
			"buffer":0,
			"byteLength":418740,
			"byteOffset":418740,
			"target":34962
		},
		{
			"buffer":0,
			"byteLength":279160,
			"byteOffset":837480,
			"target":34962
		},
		{
			"buffer":0,
			"byteLength":279160,
			"byteOffset":1116640,
			"target":34962
		},
		{
			"buffer":0,
			"byteLength":334080,
			"byteOffset":1395800,
			"target":34963
		},
		{
			"buffer":0,
			"byteLength":265488,
			"byteOffset":1729880,
			"target":34962
		},
		{
			"buffer":0,
			"byteLength":265488,
			"byteOffset":1995368,
			"target":34962
		},
		{
			"buffer":0,
			"byteLength":176992,
			"byteOffset":2260856,
			"target":34962
		},
		{
			"buffer":0,
			"byteLength":176992,
			"byteOffset":2437848,
			"target":34962
		},
		{
			"buffer":0,
			"byteLength":84936,
			"byteOffset":2614840,
			"target":34963
		}
	],
	"samplers":[
		{
			"magFilter":9729,
			"minFilter":9987
		}
	],
	"buffers":[
		{
			"byteLength":2699776,
			"uri":"tree-50.bin"
		}
	]
}
