{
	"asset":{
		"generator":"Khronos glTF Blender I/O v4.3.47",
		"version":"2.0"
	},
	"extensionsUsed":[
		"KHR_materials_specular"
	],
	"scene":0,
	"scenes":[
		{
			"name":"Scene",
			"nodes":[
				0
			]
		}
	],
	"nodes":[
		{
			"mesh":0,
			"name":"tree-100"
		}
	],
	"materials":[
		{
			"doubleSided":true,
			"name":"Material",
			"normalTexture":{
				"index":0,
				"scale":0.7999999523162842
			},
			"pbrMetallicRoughness":{
				"baseColorTexture":{
					"index":1
				},
				"metallicFactor":0,
				"roughnessFactor":0.5
			}
		},
		{
			"doubleSided":true,
			"extensions":{
				"KHR_materials_specular":{
					"specularFactor":0.5433070659637451
				}
			},
			"name":"Material.001",
			"pbrMetallicRoughness":{
				"baseColorFactor":[
					0.15895959734916687,
					0.42869096994400024,
					0.11443550884723663,
					1
				],
				"metallicFactor":0,
				"roughnessFactor":0.7007874250411987
			}
		}
	],
	"meshes":[
		{
			"name":"tree.009",
			"primitives":[
				{
					"attributes":{
						"POSITION":0,
						"NORMAL":1,
						"TEXCOORD_0":2,
						"TEXCOORD_1":3
					},
					"indices":4,
					"material":0
				},
				{
					"attributes":{
						"POSITION":5,
						"NORMAL":6,
						"TEXCOORD_0":7,
						"TEXCOORD_1":8
					},
					"indices":9,
					"material":1
				}
			]
		}
	],
	"textures":[
		{
			"sampler":0,
			"source":0
		},
		{
			"sampler":0,
			"source":1
		}
	],
	"images":[
		{
			"mimeType":"image/png",
			"name":"tree_bump",
			"uri":"tree_bump.png"
		},
		{
			"mimeType":"image/png",
			"name":"tree_colorlamp",
			"uri":"tree_colorlamp.png"
		}
	],
	"accessors":[
		{
			"bufferView":0,
			"componentType":5126,
			"count":162988,
			"max":[
				10.346659660339355,
				14.476283073425293,
				9.294678688049316
			],
			"min":[
				-8.201141357421875,
				0,
				-8.620441436767578
			],
			"type":"VEC3"
		},
		{
			"bufferView":1,
			"componentType":5126,
			"count":162988,
			"type":"VEC3"
		},
		{
			"bufferView":2,
			"componentType":5126,
			"count":162988,
			"type":"VEC2"
		},
		{
			"bufferView":3,
			"componentType":5126,
			"count":162988,
			"type":"VEC2"
		},
		{
			"bufferView":4,
			"componentType":5125,
			"count":762768,
			"type":"SCALAR"
		},
		{
			"bufferView":5,
			"componentType":5126,
			"count":698750,
			"max":[
				10.718269348144531,
				14.848795890808105,
				9.569906234741211
			],
			"min":[
				-8.51618766784668,
				2.2387309074401855,
				-8.955238342285156
			],
			"type":"VEC3"
		},
		{
			"bufferView":6,
			"componentType":5126,
			"count":698750,
			"type":"VEC3"
		},
		{
			"bufferView":7,
			"componentType":5126,
			"count":698750,
			"type":"VEC2"
		},
		{
			"bufferView":8,
			"componentType":5126,
			"count":698750,
			"type":"VEC2"
		},
		{
			"bufferView":9,
			"componentType":5125,
			"count":1325940,
			"type":"SCALAR"
		}
	],
	"bufferViews":[
		{
			"buffer":0,
			"byteLength":1955856,
			"byteOffset":0,
			"target":34962
		},
		{
			"buffer":0,
			"byteLength":1955856,
			"byteOffset":1955856,
			"target":34962
		},
		{
			"buffer":0,
			"byteLength":1303904,
			"byteOffset":3911712,
			"target":34962
		},
		{
			"buffer":0,
			"byteLength":1303904,
			"byteOffset":5215616,
			"target":34962
		},
		{
			"buffer":0,
			"byteLength":3051072,
			"byteOffset":6519520,
			"target":34963
		},
		{
			"buffer":0,
			"byteLength":8385000,
			"byteOffset":9570592,
			"target":34962
		},
		{
			"buffer":0,
			"byteLength":8385000,
			"byteOffset":17955592,
			"target":34962
		},
		{
			"buffer":0,
			"byteLength":5590000,
			"byteOffset":26340592,
			"target":34962
		},
		{
			"buffer":0,
			"byteLength":5590000,
			"byteOffset":31930592,
			"target":34962
		},
		{
			"buffer":0,
			"byteLength":5303760,
			"byteOffset":37520592,
			"target":34963
		}
	],
	"samplers":[
		{
			"magFilter":9729,
			"minFilter":9987
		}
	],
	"buffers":[
		{
			"byteLength":42824352,
			"uri":"tree-100.bin"
		}
	]
}
