{
	"asset":{
		"generator":"Khronos glTF Blender I/O v4.3.47",
		"version":"2.0"
	},
	"extensionsUsed":[
		"KHR_materials_specular"
	],
	"scene":0,
	"scenes":[
		{
			"name":"Scene",
			"nodes":[
				0
			]
		}
	],
	"nodes":[
		{
			"mesh":0,
			"name":"tree-75"
		}
	],
	"materials":[
		{
			"doubleSided":true,
			"name":"Material",
			"normalTexture":{
				"index":0,
				"scale":0.7999999523162842
			},
			"pbrMetallicRoughness":{
				"baseColorTexture":{
					"index":1
				},
				"metallicFactor":0,
				"roughnessFactor":0.5
			}
		},
		{
			"doubleSided":true,
			"extensions":{
				"KHR_materials_specular":{
					"specularFactor":0.5433070659637451
				}
			},
			"name":"Material.001",
			"pbrMetallicRoughness":{
				"baseColorFactor":[
					0.15895959734916687,
					0.42869096994400024,
					0.11443550884723663,
					1
				],
				"metallicFactor":0,
				"roughnessFactor":0.7007874250411987
			}
		}
	],
	"meshes":[
		{
			"name":"tree.003",
			"primitives":[
				{
					"attributes":{
						"POSITION":0,
						"NORMAL":1,
						"TEXCOORD_0":2,
						"TEXCOORD_1":3
					},
					"indices":4,
					"material":0
				},
				{
					"attributes":{
						"POSITION":5,
						"NORMAL":6,
						"TEXCOORD_0":7,
						"TEXCOORD_1":8
					},
					"indices":9,
					"material":1
				}
			]
		}
	],
	"textures":[
		{
			"sampler":0,
			"source":0
		},
		{
			"sampler":0,
			"source":1
		}
	],
	"images":[
		{
			"mimeType":"image/png",
			"name":"tree_bump",
			"uri":"tree_bump.png"
		},
		{
			"mimeType":"image/png",
			"name":"tree_colorlamp",
			"uri":"tree_colorlamp.png"
		}
	],
	"accessors":[
		{
			"bufferView":0,
			"componentType":5126,
			"count":39039,
			"max":[
				5.571967124938965,
				8.840662956237793,
				4.71666145324707
			],
			"min":[
				-3.993706464767456,
				0,
				-4.376713752746582
			],
			"type":"VEC3"
		},
		{
			"bufferView":1,
			"componentType":5126,
			"count":39039,
			"type":"VEC3"
		},
		{
			"bufferView":2,
			"componentType":5126,
			"count":39039,
			"type":"VEC2"
		},
		{
			"bufferView":3,
			"componentType":5126,
			"count":39039,
			"type":"VEC2"
		},
		{
			"bufferView":4,
			"componentType":5123,
			"count":187056,
			"type":"SCALAR"
		},
		{
			"bufferView":5,
			"componentType":5126,
			"count":47078,
			"max":[
				5.912348747253418,
				9.084366798400879,
				4.952297210693359
			],
			"min":[
				-4.261437892913818,
				2.0133190155029297,
				-4.698671817779541
			],
			"type":"VEC3"
		},
		{
			"bufferView":6,
			"componentType":5126,
			"count":47078,
			"type":"VEC3"
		},
		{
			"bufferView":7,
			"componentType":5126,
			"count":47078,
			"type":"VEC2"
		},
		{
			"bufferView":8,
			"componentType":5126,
			"count":47078,
			"type":"VEC2"
		},
		{
			"bufferView":9,
			"componentType":5123,
			"count":90108,
			"type":"SCALAR"
		}
	],
	"bufferViews":[
		{
			"buffer":0,
			"byteLength":468468,
			"byteOffset":0,
			"target":34962
		},
		{
			"buffer":0,
			"byteLength":468468,
			"byteOffset":468468,
			"target":34962
		},
		{
			"buffer":0,
			"byteLength":312312,
			"byteOffset":936936,
			"target":34962
		},
		{
			"buffer":0,
			"byteLength":312312,
			"byteOffset":1249248,
			"target":34962
		},
		{
			"buffer":0,
			"byteLength":374112,
			"byteOffset":1561560,
			"target":34963
		},
		{
			"buffer":0,
			"byteLength":564936,
			"byteOffset":1935672,
			"target":34962
		},
		{
			"buffer":0,
			"byteLength":564936,
			"byteOffset":2500608,
			"target":34962
		},
		{
			"buffer":0,
			"byteLength":376624,
			"byteOffset":3065544,
			"target":34962
		},
		{
			"buffer":0,
			"byteLength":376624,
			"byteOffset":3442168,
			"target":34962
		},
		{
			"buffer":0,
			"byteLength":180216,
			"byteOffset":3818792,
			"target":34963
		}
	],
	"samplers":[
		{
			"magFilter":9729,
			"minFilter":9987
		}
	],
	"buffers":[
		{
			"byteLength":3999008,
			"uri":"tree-75.bin"
		}
	]
}
