{
	"asset":{
		"generator":"Khronos glTF Blender I/O v4.3.47",
		"version":"2.0"
	},
	"extensionsUsed":[
		"KHR_materials_specular"
	],
	"scene":0,
	"scenes":[
		{
			"name":"Scene",
			"nodes":[
				0
			]
		}
	],
	"nodes":[
		{
			"mesh":0,
			"name":"tree-50"
		}
	],
	"materials":[
		{
			"doubleSided":true,
			"extensions":{
				"KHR_materials_specular":{
					"specularFactor":0.5433070659637451
				}
			},
			"name":"Material.001",
			"pbrMetallicRoughness":{
				"baseColorFactor":[
					0.15895959734916687,
					0.42869096994400024,
					0.11443550884723663,
					1
				],
				"metallicFactor":0,
				"roughnessFactor":0.7007874250411987
			}
		},
		{
			"doubleSided":true,
			"name":"Material",
			"pbrMetallicRoughness":{
				"metallicFactor":0,
				"roughnessFactor":0.5
			}
		}
	],
	"meshes":[
		{
			"name":"leaves.007",
			"primitives":[
				{
					"attributes":{
						"POSITION":0,
						"NORMAL":1,
						"TEXCOORD_0":2,
						"TEXCOORD_1":3
					},
					"indices":4,
					"material":0
				},
				{
					"attributes":{
						"POSITION":5,
						"NORMAL":6,
						"TEXCOORD_0":7,
						"TEXCOORD_1":8
					},
					"indices":9,
					"material":1
				}
			]
		}
	],
	"accessors":[
		{
			"bufferView":0,
			"componentType":5126,
			"count":22002,
			"max":[
				3.9111549854278564,
				6.581974029541016,
				4.093784332275391
			],
			"min":[
				-3.6328139305114746,
				1.677483081817627,
				-3.8032469749450684
			],
			"type":"VEC3"
		},
		{
			"bufferView":1,
			"componentType":5126,
			"count":22002,
			"type":"VEC3"
		},
		{
			"bufferView":2,
			"componentType":5126,
			"count":22002,
			"type":"VEC2"
		},
		{
			"bufferView":3,
			"componentType":5126,
			"count":22002,
			"type":"VEC2"
		},
		{
			"bufferView":4,
			"componentType":5123,
			"count":42468,
			"type":"SCALAR"
		},
		{
			"bufferView":5,
			"componentType":5126,
			"count":34895,
			"max":[
				3.677245616912842,
				6.353497505187988,
				3.8020145893096924
			],
			"min":[
				-3.361008405685425,
				0,
				-3.582979679107666
			],
			"type":"VEC3"
		},
		{
			"bufferView":6,
			"componentType":5126,
			"count":34895,
			"type":"VEC3"
		},
		{
			"bufferView":7,
			"componentType":5126,
			"count":34895,
			"type":"VEC2"
		},
		{
			"bufferView":8,
			"componentType":5126,
			"count":34895,
			"type":"VEC2"
		},
		{
			"bufferView":9,
			"componentType":5123,
			"count":167040,
			"type":"SCALAR"
		}
	],
	"bufferViews":[
		{
			"buffer":0,
			"byteLength":264024,
			"byteOffset":0,
			"target":34962
		},
		{
			"buffer":0,
			"byteLength":264024,
			"byteOffset":264024,
			"target":34962
		},
		{
			"buffer":0,
			"byteLength":176016,
			"byteOffset":528048,
			"target":34962
		},
		{
			"buffer":0,
			"byteLength":176016,
			"byteOffset":704064,
			"target":34962
		},
		{
			"buffer":0,
			"byteLength":84936,
			"byteOffset":880080,
			"target":34963
		},
		{
			"buffer":0,
			"byteLength":418740,
			"byteOffset":965016,
			"target":34962
		},
		{
			"buffer":0,
			"byteLength":418740,
			"byteOffset":1383756,
			"target":34962
		},
		{
			"buffer":0,
			"byteLength":279160,
			"byteOffset":1802496,
			"target":34962
		},
		{
			"buffer":0,
			"byteLength":279160,
			"byteOffset":2081656,
			"target":34962
		},
		{
			"buffer":0,
			"byteLength":334080,
			"byteOffset":2360816,
			"target":34963
		}
	],
	"buffers":[
		{
			"byteLength":2694896,
			"uri":"tree-50.bin"
		}
	]
}
